<svg xmlns="http://www.w3.org/2000/svg" viewBox="0 0 800 450" width="800" height="450">
  <defs>
    <filter id="shadow06" x="-5%" y="-5%" width="115%" height="115%">
      <feDropShadow dx="1" dy="2" stdDeviation="4" flood-color="#00000033"/>
    </filter>
  </defs>

  <!-- Dark background: dev environment -->
  <rect width="800" height="450" fill="#1e1e2e"/>

  <!-- Year label -->
  <rect x="16" y="14" width="60" height="24" rx="4" fill="#ff6600" opacity="0.9"/>
  <text x="46" y="30" font-family="monospace" font-size="13" fill="#fff" text-anchor="middle" font-weight="bold">2006</text>

  <!-- Main browser window -->
  <g transform="translate(20, 50)">
    <!-- Browser frame -->
    <rect x="0" y="0" width="760" height="390" rx="8" fill="#2a2a3e" filter="url(#shadow06)"/>
    <!-- Browser title bar -->
    <rect x="0" y="0" width="760" height="32" rx="8" fill="#333348"/>
    <rect x="0" y="22" width="760" height="10" fill="#333348"/>
    <!-- Window controls -->
    <circle cx="16" cy="16" r="6" fill="#ff5f57"/>
    <circle cx="32" cy="16" r="6" fill="#febc2e"/>
    <circle cx="48" cy="16" r="6" fill="#28c840"/>
    <!-- Firefox / Firebug branding -->
    <text x="380" y="20" font-family="sans-serif" font-size="11" fill="#aaa" text-anchor="middle">Firefox — Firebug 1.0</text>
    <!-- Address bar -->
    <rect x="60" y="6" width="500" height="20" rx="4" fill="#1a1a2e"/>
    <text x="75" y="20" font-family="monospace" font-size="9" fill="#6688cc">http://example.com/page.html</text>

    <!-- PAGE CONTENT (top portion of browser) -->
    <rect x="0" y="32" width="760" height="210" fill="#f8f9fa"/>

    <!-- Website being inspected -->
    <!-- Header area -->
    <rect x="0" y="32" width="760" height="40" fill="#2c5282"/>
    <text x="30" y="57" font-family="sans-serif" font-size="14" fill="#fff" font-weight="bold">My Blog</text>
    <rect x="400" y="42" width="60" height="12" rx="3" fill="#ffffff33"/>
    <rect x="470" y="42" width="60" height="12" rx="3" fill="#ffffff33"/>
    <rect x="540" y="42" width="60" height="12" rx="3" fill="#ffffff33"/>

    <!-- HIGHLIGHTED ELEMENT - element being inspected (with blue overlay) -->
    <rect x="20" y="82" width="460" height="60" rx="4" fill="#e8f4ff" stroke="#4488cc" stroke-width="2"/>
    <!-- Blue highlight overlay -->
    <rect x="20" y="82" width="460" height="60" rx="4" fill="#4488cc" opacity="0.15"/>
    <!-- Dimension tooltip -->
    <rect x="320" y="72" width="100" height="18" rx="3" fill="#333" opacity="0.85"/>
    <text x="370" y="84" font-family="monospace" font-size="8" fill="#fff" text-anchor="middle">460 × 60 px</text>
    <!-- Content inside highlighted element -->
    <text x="32" y="102" font-family="sans-serif" font-size="12" fill="#2c5282" font-weight="bold">Welcome to My Blog Post</text>
    <text x="32" y="118" font-family="sans-serif" font-size="9" fill="#666">Published on June 3, 2006 · by Joe</text>
    <rect x="32" y="126" width="200" height="4" rx="1" fill="#ddd"/>

    <!-- Other non-highlighted content -->
    <rect x="20" y="155" width="460" height="4" rx="1" fill="#ddd"/>
    <rect x="20" y="163" width="430" height="4" rx="1" fill="#ddd"/>
    <rect x="20" y="171" width="440" height="4" rx="1" fill="#ddd"/>
    <rect x="20" y="179" width="350" height="4" rx="1" fill="#ddd"/>
    <rect x="20" y="187" width="420" height="4" rx="1" fill="#ddd"/>
    <rect x="20" y="195" width="460" height="4" rx="1" fill="#ddd"/>
    <rect x="20" y="203" width="400" height="4" rx="1" fill="#ddd"/>
    <rect x="20" y="211" width="440" height="4" rx="1" fill="#ddd"/>
    <rect x="20" y="219" width="380" height="4" rx="1" fill="#ddd"/>

    <!-- Sidebar -->
    <rect x="500" y="80" width="240" height="155" rx="4" fill="#fff" stroke="#eee" stroke-width="1"/>
    <rect x="510" y="88" width="100" height="8" rx="2" fill="#ddd"/>
    <rect x="510" y="100" width="220" height="6" rx="1" fill="#eee"/>
    <rect x="510" y="110" width="210" height="6" rx="1" fill="#eee"/>
    <rect x="510" y="120" width="220" height="6" rx="1" fill="#eee"/>
    <rect x="510" y="135" width="80" height="8" rx="2" fill="#ddd"/>
    <rect x="510" y="148" width="60" height="14" rx="4" fill="#2c5282"/>
    <rect x="578" y="148" width="60" height="14" rx="4" fill="#2c5282" opacity="0.5"/>

    <!-- FIREBUG PANEL at bottom of browser -->
    <rect x="0" y="242" width="760" height="148" fill="#1a1a2e"/>
    <!-- Firebug header bar -->
    <rect x="0" y="242" width="760" height="26" fill="#252540"/>
    <!-- Firebug logo fire icon -->
    <text x="14" y="258" font-family="sans-serif" font-size="13" fill="#ff6600">🔥</text>
    <text x="34" y="258" font-family="monospace" font-size="11" fill="#ff6600" font-weight="bold">Firebug</text>
    <!-- Tabs -->
    <rect x="100" y="244" width="60" height="22" rx="4" fill="#333368"/>
    <text x="130" y="258" font-family="monospace" font-size="9" fill="#88aaff" text-anchor="middle">Inspector</text>
    <rect x="168" y="244" width="50" height="22" rx="4" fill="#252540"/>
    <text x="193" y="258" font-family="monospace" font-size="9" fill="#666" text-anchor="middle">Console</text>
    <rect x="226" y="244" width="60" height="22" rx="4" fill="#252540"/>
    <text x="256" y="258" font-family="monospace" font-size="9" fill="#666" text-anchor="middle">Network</text>
    <rect x="294" y="244" width="50" height="22" rx="4" fill="#252540"/>
    <text x="319" y="258" font-family="monospace" font-size="9" fill="#666" text-anchor="middle">Script</text>
    <!-- Close button -->
    <text x="742" y="258" font-family="sans-serif" font-size="14" fill="#666">×</text>

    <!-- Left panel: DOM tree -->
    <rect x="0" y="268" width="380" height="122" fill="#1a1a2e"/>
    <text x="10" y="284" font-family="monospace" font-size="9" fill="#888">&lt;html&gt;</text>
    <text x="10" y="296" font-family="monospace" font-size="9" fill="#888">  &lt;body&gt;</text>
    <text x="10" y="308" font-family="monospace" font-size="9" fill="#88bbff">  ▶ &lt;header&gt;...&lt;/header&gt;</text>
    <!-- Highlighted element in DOM tree -->
    <rect x="8" y="314" width="364" height="16" rx="2" fill="#2233aa" opacity="0.6"/>
    <text x="10" y="326" font-family="monospace" font-size="9" fill="#ffffff">    &lt;article class="post"&gt;</text>
    <!-- Selected indicator -->
    <circle cx="6" cy="322" r="3" fill="#ff6600"/>
    <text x="10" y="342" font-family="monospace" font-size="9" fill="#888">    &lt;h2&gt;Welcome to My Blog...&lt;/h2&gt;</text>
    <text x="10" y="356" font-family="monospace" font-size="9" fill="#888">    &lt;p class="meta"&gt;...&lt;/p&gt;</text>
    <text x="10" y="370" font-family="monospace" font-size="9" fill="#888">    &lt;/article&gt;</text>
    <text x="10" y="382" font-family="monospace" font-size="9" fill="#888">  &lt;/body&gt;</text>

    <!-- Vertical separator -->
    <rect x="380" y="268" width="2" height="122" fill="#2a2a4a"/>

    <!-- Right panel: CSS rules -->
    <rect x="382" y="268" width="378" height="122" fill="#16162e"/>
    <text x="392" y="282" font-family="monospace" font-size="9" fill="#888">Styles</text>
    <line x1="382" y1="285" x2="760" y2="285" stroke="#2a2a4a" stroke-width="1"/>

    <!-- Computed CSS rules panel -->
    <text x="392" y="298" font-family="monospace" font-size="8" fill="#666">article.post &#123;</text>
    <!-- Editable field - simulating live edit with cursor -->
    <text x="400" y="310" font-family="monospace" font-size="8" fill="#88bbff">  background: </text>
    <rect x="490" y="302" width="80" height="12" rx="2" fill="#223355"/>
    <text x="492" y="312" font-family="monospace" font-size="8" fill="#88ff88">#e8f4ff</text>
    <!-- Edit cursor blink -->
    <rect x="535" y="303" width="2" height="10" fill="#88ff88" opacity="0.8"/>
    <text x="400" y="322" font-family="monospace" font-size="8" fill="#ccc">  padding: 1.5rem;</text>
    <text x="400" y="334" font-family="monospace" font-size="8" fill="#ccc">  border-radius: 4px;</text>
    <text x="400" y="346" font-family="monospace" font-size="8" fill="#ccc">  border: 2px solid #4488cc;</text>
    <text x="392" y="358" font-family="monospace" font-size="8" fill="#666">&#125;</text>
    <!-- Inherited rules -->
    <text x="392" y="372" font-family="monospace" font-size="8" fill="#555666">body &#123; color: #333; font: 16px sans-serif; &#125;</text>
    <text x="392" y="384" font-family="monospace" font-size="8" fill="#444555">* &#123; box-sizing: border-box; &#125;</text>
  </g>

  <!-- Firebug tagline -->
  <text x="400" y="448" font-family="monospace" font-size="9" fill="#ff6600" text-anchor="middle" opacity="0.7">Click element · See CSS instantly · Edit live</text>
</svg>
